<svg width="146" height="28" viewBox="0 0 146 28" fill="none" xmlns="http://www.w3.org/2000/svg">
<path d="M54.3155 0C51.5764 0 48.8987 0.812258 46.6212 2.33406C44.3437 3.85586 42.5685 6.01885 41.5203 8.54951C40.4721 11.0802 40.1978 13.8648 40.7322 16.5514C41.2666 19.2379 42.5856 21.7057 44.5225 23.6425C46.4594 25.5794 48.9271 26.8985 51.6137 27.4328C54.3002 27.9672 57.0849 27.693 59.6155 26.6447C62.1462 25.5965 64.3092 23.8214 65.831 21.5438C67.3528 19.2663 68.165 16.5886 68.165 13.8495C68.1647 10.1765 66.7055 6.65397 64.1083 4.05676C61.5111 1.45954 57.9886 0.00030508 54.3155 0V0ZM63.5528 20.7961L55.2831 16.5174C55.109 16.4268 54.9105 16.3943 54.7165 16.4245C54.5226 16.4547 54.3434 16.5461 54.2051 16.6854L47.6301 23.2754C47.6028 23.3031 47.5664 23.3201 47.5275 23.3232C47.4887 23.3263 47.4501 23.3153 47.4187 23.2923C47.3873 23.2693 47.3652 23.2357 47.3565 23.1977C47.3478 23.1598 47.353 23.1199 47.3713 23.0855L51.6487 14.817C51.7395 14.643 51.7722 14.4446 51.7422 14.2507C51.7122 14.0567 51.621 13.8775 51.4819 13.739L44.8897 7.16174C44.8625 7.13437 44.846 7.09822 44.8431 7.05977C44.8401 7.02132 44.851 6.98308 44.8737 6.95192C44.8964 6.92076 44.9295 6.89871 44.967 6.88972C45.0045 6.88074 45.044 6.8854 45.0783 6.90288L53.348 11.1804C53.5221 11.271 53.7206 11.3035 53.9146 11.2733C54.1085 11.2431 54.2877 11.1517 54.426 11.0124L61.0033 4.4236C61.0307 4.39643 61.0668 4.37991 61.1053 4.37699C61.1437 4.37407 61.1819 4.38494 61.2131 4.40765C61.2443 4.43036 61.2663 4.46343 61.2753 4.50093C61.2843 4.53843 61.2796 4.5779 61.2621 4.61227L56.9847 12.8854C56.8939 13.0594 56.8612 13.2578 56.8912 13.4518C56.9212 13.6457 57.0124 13.8249 57.1515 13.9634L63.7368 20.5372C63.7622 20.5646 63.7773 20.5998 63.7797 20.637C63.7822 20.6742 63.7717 20.7111 63.7501 20.7415C63.7285 20.7719 63.697 20.7939 63.6611 20.8039C63.6252 20.8138 63.5869 20.811 63.5528 20.7961V20.7961Z" fill="white"/>
<path d="M69.2473 0.780273H78.0393V19.5043H87.2224L84.7523 27.0756H69.2473V0.780273Z" fill="white"/>
<path d="M0 0.782227V27.0776H19.8953V19.5063H8.79542V17.3606H18.4249V10.5015H8.79542V8.35354H19.8953V0.782227H0Z" fill="white"/>
<path d="M36.0804 19.5037C32.4334 19.5037 29.7528 17.4674 29.7528 13.9262C29.7528 10.385 32.392 8.34865 36.0804 8.34865H40.1232V0.777344H34.0763C25.2314 0.777344 20.4707 6.37788 20.4707 13.9204C20.4707 21.463 25.2717 27.0704 34.1165 27.0704H40.1232V19.4991H36.0804V19.5037Z" fill="white"/>
<path d="M116.607 0.765625H130.465C135.649 0.765625 138.748 3.72926 138.748 7.62479C138.748 10.9278 137.085 12.7318 134.929 13.4382V13.5037C137.394 14.2136 139.586 16.2649 139.586 19.5484C139.586 24.2113 136.46 27.0737 130.406 27.0737H116.601V0.765625H116.607ZM125.184 16.4754V21.0981H128.112C129.909 21.0981 130.694 20.341 130.694 18.7856C130.694 17.3164 129.95 16.4754 128.112 16.4754H125.184ZM125.173 6.61467V10.6195H127.86C129.518 10.6195 130.153 9.85672 130.153 8.61535C130.153 7.28539 129.493 6.61236 127.86 6.61236H125.173V6.61467Z" fill="white"/>
<path d="M115.563 27.0759H105.999L105.05 23.56H96.7664L95.846 27.0759H86.2798L94.5701 0.75293H107.309L115.563 27.0759ZM100.977 8.02741H100.862L98.4921 16.9816H103.346L100.977 8.02741Z" fill="white"/>
<path d="M142.4 6.14392C140.905 6.14392 139.766 5.07742 139.766 3.50702C139.766 1.93661 140.905 0.870117 142.4 0.870117C143.896 0.870117 145.035 1.93661 145.035 3.50702C145.035 5.07742 143.896 6.14392 142.4 6.14392ZM142.4 1.20721C141.107 1.20721 140.122 2.14945 140.122 3.50817C140.122 4.86689 141.107 5.80913 142.4 5.80913C143.693 5.80913 144.678 4.86689 144.678 3.50817C144.678 2.14945 143.695 1.20721 142.4 1.20721ZM142.896 3.66924L143.544 4.91866H143.094L142.466 3.7003H141.838V4.91866H141.451V2.00564H142.633C143.16 2.00564 143.567 2.2691 143.567 2.84319C143.575 3.03889 143.511 3.23072 143.387 3.38276C143.264 3.53481 143.089 3.63665 142.896 3.66924V3.66924ZM142.613 2.34733H141.841V3.3356H142.569C142.985 3.3356 143.183 3.18143 143.183 2.84664C143.183 2.51185 142.977 2.34733 142.613 2.34733V2.34733Z" fill="white"/>
</svg>
